<svg width="320" height="340" xmlns="http://www.w3.org/2000/svg" version="1.0" preserveAspectRatio="xMidYMid meet" zoomAndPan="magnify">
 <defs>
  <g id="svg_1"/>
  <clipPath id="f75187d763">
   <path id="svg_2" clip-rule="nonzero" d="m804.21875,155.46094l46.69141,0l0,25.53125l-46.69141,0l0,-25.53125zm0,0"/>
  </clipPath>
  <clipPath id="33115b90cf">
   <path id="svg_3" clip-rule="nonzero" d="m597,128.14453l38,0l0,37.85547l-38,0l0,-37.85547zm0,0"/>
  </clipPath>
  <clipPath id="186e3be98b">
   <path id="svg_4" clip-rule="nonzero" d="m714.41797,437.50391l11.94531,0l0,14.59375l-11.94531,0l0,-14.59375zm0,0"/>
  </clipPath>
  <clipPath id="f9d5f6846c">
   <path id="svg_5" clip-rule="nonzero" d="m589.18359,155l46.81641,0l0,26l-46.81641,0l0,-26zm0,0"/>
  </clipPath>
  <clipPath id="ab8ba2feab">
   <path id="svg_6" clip-rule="nonzero" d="m806,128.14453l37,0l0,37.85547l-37,0l0,-37.85547zm0,0"/>
  </clipPath>
 </defs>
 <g>
  <title>Layer 1</title>
  <path id="svg_7" fill-rule="nonzero" d="m186.10997,117.87013c-0.75782,-0.27734 -0.71485,-0.29687 -1.74219,-0.67578c0.54297,3.37891 1.07422,6.99609 1.5664,11.20703c0.02344,0.21094 -0.29687,0.25391 -0.32421,0.03906c-0.53907,-3.98828 -1.17579,-7.82421 -1.8086,-11.46484c-1.80859,-0.73828 -1.6875,-1.07031 -1.625,-0.65625c0.02735,0.21094 -0.28515,0.26563 -0.32812,0.05078c-0.02735,-0.16797 -0.05469,-0.32422 -0.08594,-0.48828c-0.91406,-0.28906 -2.58594,-0.71875 -4.54688,-1.05859c0.77344,6.0664 1.42188,9.35156 2.02344,11.36328c0.07813,-0.31641 0.21875,-0.61719 0.42969,-0.86719c-0.0625,0.67188 -0.06641,1.34766 -0.04297,2.01953c0.44531,1.16406 0.875,1.78906 1.32422,2.53906c0.03125,-0.25 0.08984,-0.49609 0.19531,-0.72656c0.07813,-0.16406 0.28906,-0.33594 0.41016,-0.19922c-0.01953,0.69532 -0.00781,1.38672 0.02344,2.08203c0.91015,1.79688 2.29296,4.625 4.125,4.4375c3.17968,-0.39843 2.51953,-4.39843 2.27343,-7.95703c-0.03515,-0.35937 -1.07031,-6.1289 -1.86718,-9.64453" fill="#000000"/>
  <path id="svg_8" fill-rule="nonzero" d="m197.26231,118.95216c-2.03125,-0.55859 -2.04297,-0.7539 -4.27734,-0.2539c1.08593,4.11718 2.46875,9.01953 4.14453,14.29687c0.0664,0.21485 -0.26172,0.32422 -0.33203,0.10156c-1.71094,-5.16015 -3.14454,-9.92578 -4.34375,-14.28906c-0.42579,0.08203 -0.89454,0.13672 -1.46094,0.12891c1.03515,3.77344 2.14062,7.51562 3.30859,11.21094c0.07031,0.21875 -0.25781,0.32421 -0.33203,0.10546c-1.25391,-3.79296 -2.41797,-7.5625 -3.49609,-11.34375c-1.07032,-0.08203 -2.71094,-0.50781 -3.39844,-0.71484c1.39844,7.27344 2.12891,10.89453 4.82812,15.07813c0.81641,1.25 2.66797,3.76171 4.15625,3.86718c2.1875,0.14063 3.12891,-6.41406 2.59375,-11.62109c-0.53125,-2.51563 -0.98828,-4.69141 -1.39062,-6.56641" fill="#000000"/>
  <path id="svg_9" fill-rule="nonzero" d="m174.09825,114.39748c0.08203,2.50781 0.19531,6.21093 0.36718,12.18359c0.00782,0.22656 -0.33593,0.24219 -0.34765,0.01172c-0.25391,-4.67188 -0.45313,-8.73047 -0.61328,-12.25c-0.12891,-0.01172 -0.25782,-0.02735 -0.38672,-0.03516c-0.03516,4.57031 -0.07031,9.34375 -0.10938,14.28516c0.78125,0.85547 1.56641,1.27734 2.21094,0.8125c0.80859,-0.58985 1.58594,-2.58985 1.73438,-3.45703c0.53906,-3.13672 0.16796,-5.67188 -0.625,-11.27344c-0.74219,-0.11328 -1.48438,-0.20313 -2.23047,-0.27734" fill="#000000"/>
  <path id="svg_10" fill-rule="nonzero" d="m150.02012,118.60841c-0.39062,3.07813 -0.48047,5.05078 -0.08984,7.33985c0.14844,0.86718 0.92969,2.86718 1.73437,3.45703c0.71875,0.51562 1.60938,-0.0625 2.47657,-1.1211c-0.03125,-3.9414 -0.0586,-7.78125 -0.08594,-11.49609c-0.26953,0.10156 -0.53516,0.20703 -0.80078,0.31641c-0.13672,2.83984 -0.29688,5.99218 -0.48828,9.48828c-0.01172,0.23047 -0.35547,0.21484 -0.34766,-0.01172c0.11719,-3.99219 0.20703,-6.96484 0.27734,-9.25c-0.91406,0.38281 -1.80859,0.8125 -2.67578,1.27734" fill="#000000"/>
  <path id="svg_11" fill-rule="nonzero" d="m214.91465,107.95216c-1.21875,0.75391 -2.25781,1.0625 -3.16406,0.9961c3.28125,7.33593 6.875,14.65234 10.94922,21.5664c0.11328,0.19922 -0.18359,0.375 -0.30078,0.17969c-4.36719,-7.19141 -8.0586,-14.57031 -11.37891,-21.89062c-0.39453,-0.12891 -0.76172,-0.33594 -1.10937,-0.60547c-0.02344,0.55078 -0.13282,1.10156 -0.3125,1.61718c1.64062,3.82422 4.42968,9.71875 6.5625,13.45704c0.11328,0.19921 -0.1836,0.375 -0.30078,0.17578c-2.14063,-3.60938 -4.39844,-8.17188 -6.53516,-12.98047c-0.42188,0.85156 -0.53125,0.73828 -1.44531,2.15625c0.65234,2.10937 1.24218,4.24219 1.73047,6.33984c2.1875,5.03906 4.74609,8.19141 7.33593,10.78516c0.03125,-0.47266 0.16016,-0.9336 0.29297,-1.38672c0.09766,0.75781 0.3086,1.49609 0.59766,2.19922c0.05859,-0.19922 0.14062,-0.39063 0.26172,-0.56641c0.125,0.53125 0.36328,1.03516 0.6875,1.47656c4.30468,3.73829 5.58593,2.82032 5.69922,-1.23828c0.0664,-4.03515 -1.5625,-8.63672 -3.92188,-13.45703c-1.12891,-1.55078 -2.5625,-3.85937 -5.64844,-8.82422" fill="#000000"/>
  <path id="svg_12" fill-rule="nonzero" d="m206.692,114.70216c-0.30469,0.48828 -1.45703,1.89453 -2.3711,1.89453c-0.28125,0.8711 -0.78906,1.47266 -1.375,1.89063c1.41407,5.20312 2.94922,10.30469 4.66797,15.07812c0.07422,0.21485 -0.24609,0.33594 -0.32812,0.11719c-1.65625,-4.42969 -3.27735,-9.60156 -4.78907,-14.92187c-0.5664,0.30078 -1.16015,0.46093 -1.66796,0.53906c0.85937,3.00781 1.76953,5.93359 2.73046,8.62891c0.07813,0.21484 -0.24609,0.33593 -0.32812,0.11718c-1,-2.6875 -1.98828,-5.64843 -2.9375,-8.71093c-0.88281,0.0039 -1.58984,-0.07032 -2.18359,-0.1836c1.30859,4.64844 3.33203,10.29688 5.65234,13.86328c3.11328,4.79688 4.46094,4.05078 5.31641,0.3086c1.17187,-5.22266 -0.09766,-11.97266 -2.16407,-19.07422c-0.13672,0.2539 -0.22265,0.42578 -0.22265,0.45312" fill="#000000"/>
  <path id="svg_13" fill-rule="nonzero" d="m225.73887,106.37013c-1.08203,0.30469 -3.1289,-0.07812 -5.12109,-0.84765c3.30078,3.92187 3.14062,3.65234 17.07812,20.46484c0.14453,0.17578 -0.12109,0.39844 -0.26562,0.22266c-25.29297,-29.60938 -15.58203,-18.53516 -20.64844,-22.83985c0.36328,1.625 0.30859,2.8711 -0.96875,3.94531c8.04688,12.46094 5.35547,8.42969 12.52344,15.85547c1.78125,1.72657 4.6875,4.35547 6.88281,5.49219c3.54688,1.75781 4.55859,1.20703 3.45313,-3.03125c-1.8711,-7.19141 -6.67579,-13.30859 -12.31641,-19.46094c-0.21094,0.07032 -0.42188,0.13672 -0.61719,0.19922" fill="#000000"/>
  <path id="svg_14" fill-rule="nonzero" d="m240.8209,104.4756c-2.01953,-1.70312 -3.89843,-3.14844 -5.9375,-4.64453c-0.53515,0.67969 -1.42968,1.17969 -2.57031,1.41797c-1.51562,0.29687 -2.39844,-2.08203 17.44922,17.59375c0.16016,0.16015 -0.07813,0.41015 -0.24609,0.24609c-5.42188,-5.23047 -11.98047,-11.45312 -18.84766,-17.66797c-0.51172,0 -1.01172,-0.04687 -1.50781,-0.14843c5.48437,5.09375 10.86328,10.30078 16.3164,15.70703c0.16407,0.16015 -0.07812,0.40625 -0.24609,0.24609c-5.03516,-4.85547 -11.05469,-10.57422 -17.38672,-16.34375c-0.07812,-0.03125 0.89844,1.03125 1.16406,1.6875c0.40235,0.98438 0.16797,2 -0.92578,2.77734c7.21485,7.21094 5.14453,5.37891 13.46094,11.9375c2.58594,2.01563 4.81641,3.87891 7.29687,4.73829c0.92188,0.3125 2.92579,0.89062 3.34375,0.00781c0.88672,-1.92188 -3.2539,-10.55078 -11.36328,-17.55469" fill="#000000"/>
  <path id="svg_15" fill-rule="nonzero" d="m172.53575,191.21388c9.07422,5.53516 11.39453,11.09375 11.08203,17.80469c-0.32813,8.00781 -4.23828,13.23437 -11.34766,17.14062c-0.02734,3.58985 -0.05078,7.15625 -0.07812,10.6836c11.92968,-4.82813 21.44922,-10.77735 23.13281,-23.64453c0.49609,-3.70703 0.28516,-8.29297 -0.45703,-12.14063c-2.44141,-12.74609 -10.89063,-20.375 -22.20313,-26.79687c-0.04297,5.61328 -0.08593,11.28125 -0.1289,16.95312" fill="#000000"/>
  <path id="svg_16" fill-rule="nonzero" d="m171.05918,114.19826c-5,-0.17578 -10.12109,0.39843 -14.94921,1.89453c0.42578,56.73437 0.74609,99.22265 1.10937,146.91015c4.10938,2.41016 8.17188,3.48829 12.67578,5.36329c0.42188,-56.19532 0.75781,-100.47657 1.16406,-154.16797" fill="#000000"/>
  <path id="svg_17" fill-rule="nonzero" d="m138.68418,131.18263c-0.01953,2.21875 0.41407,4.02735 2.4961,4.28906c1.83203,0.1875 3.21484,-2.64062 4.1289,-4.4375c0.02735,-0.69531 0.04297,-1.38671 0.01954,-2.08203c0.12109,-0.13672 0.33593,0.03516 0.41015,0.19922c0.10547,0.23047 0.16406,0.47656 0.19922,0.72656c0.44922,-0.75 0.875,-1.375 1.32031,-2.53906c0.02344,-0.67187 0.01953,-1.34765 -0.04297,-2.01953c0.21094,0.25 0.35157,0.55078 0.4336,0.86719c0.4375,-1.47266 0.90234,-3.625 1.42187,-7.05078c-2.83593,1.65625 -5.23047,3.63281 -7.27343,6.28906c-0.13282,0.17969 -0.09766,-0.10156 -0.51954,3.01562c-0.03125,0.21485 -0.35156,0.17188 -0.32812,-0.03906c0.08984,-0.74219 0.17578,-1.45703 0.26562,-2.16015c-1.1289,1.64062 -1.92187,3.23828 -2.53125,4.9414" fill="#000000"/>
  <path id="svg_18" fill-rule="nonzero" d="m187.7584,103.27248c1.87891,-2.51172 7.39453,-4.57813 9.63672,0.0625c0.36328,0.7539 0.33203,1.38671 -0.54687,1.38671c0.09765,0.55079 0.0039,1.57813 -0.13282,1.92579c-0.77734,1.8164 -3.37109,1.55468 -3.20312,1.03906c0.08594,-0.26953 0.51953,-0.01172 1.35156,-0.38672c0.69922,-0.32031 1.22656,-1.30469 1.08985,-2.09766c-0.66797,0.95703 -2.01563,1.58985 -3.20313,1.4375c-1.4375,-0.17187 -2.60937,-1.47265 -2.50391,-2.95703c0,-0.08203 0.01954,-0.05859 -0.07812,-0.0039c-0.69922,0.38281 -0.71094,1.95312 0.66406,2.875c0.39453,0.23437 0.79297,0.5 1.24219,0.80078l0.01172,0.05859c0.52344,0.40625 -3.52344,0.30469 -3.5,-3.01953c0.00781,-0.30078 0.0625,-0.61328 0.1914,-0.92188c-0.26171,0.07813 -0.50781,0.15235 -0.72265,0.21875c-0.25,0.07813 -0.45313,-0.20703 -0.29688,-0.41796zm17.52735,3.09765c3.3125,1.09766 -0.35157,4.30078 0.2539,2.67188c0.13282,-0.36328 0.67188,-1.10547 -0.43359,-1.57422c-1.83594,-0.85938 -1.75781,-1.73438 0.17969,-1.09766zm-27.39844,3.29297c-0.01172,-0.1875 0.125,-0.28906 0.25,-0.29687c0.65625,-0.04688 1.07812,3.33593 3.91797,4.82812c0.84765,0.44531 1.70703,1.01172 2.95312,1.625c6.01953,2.95703 9,0.41406 11.32032,0.91016c4.24218,0.91797 4.98046,0.76953 6.0625,-0.55078c-1.42579,-0.19922 -5.16797,-1.53516 -5.16797,-1.34375c-1.54297,-0.41797 -3.05078,-0.84375 -5.25391,-1.28907c-2.60547,-0.5664 -2.53906,0.21485 -6.99219,-1.51562c-0.28906,-0.11328 -0.20312,-0.61328 0.125,-0.53906c0.9336,0.21484 1.82032,0.49218 2.73828,0.60546c2.59766,0.41407 2.91407,-0.52343 8.44532,0.99219c4.38672,1.19141 4.53515,2.09375 7.75,1.98047c2.47265,-0.09766 1.58203,-2.16406 4.45312,-5.24219c1.27344,-1.36328 -0.4414,-3.35547 -0.86328,-3.73047c-2.12109,-1.89062 -3.95312,-3.33593 -6.94531,-5.32421c0.64062,1.76562 -0.39063,1.77343 -0.35547,1.29296c0.05078,-0.73437 -0.51563,-1.5 -1.08984,-2.09375c-0.76172,-0.78906 -5.12891,-3.10546 -6.09766,-3.61328c-1.70313,-0.89062 -5.72266,-1.66797 -7.62891,-1.27734c-2.59375,0.52734 -5.35156,2.15625 -4.67187,4.53516c0.11328,0.40234 -0.46485,0.66406 -0.67578,0.17578c-0.59375,-1.39453 0.01562,-3.29688 2.32422,-4.67578c-1.63672,0.15625 -2.39454,0.35546 -4.59375,0.41796c-3.07813,0.08204 -10.28907,-0.72656 -20.26172,1.25391c-19.85157,3.92578 -36.75782,17 -38.8711,36.80859c-0.41015,3.69922 -0.23437,8.01954 0.25,11.46875c2.79688,20.24219 17.14453,29.3125 35.54297,37.51563c-0.04297,-5.98438 -0.08984,-11.92969 -0.13281,-17.79688c-9.54297,-5.23828 -17.75391,-11.4375 -18.9375,-22.28515c-0.44922,-4.09375 0.03906,-8.69922 1.58594,-12.64844c5.88281,-15.25 26.35156,-20.03906 42.04297,-16.75c-0.59766,-0.83984 -1.11719,-1.89062 -1.22266,-3.4375" fill="#000000"/>
  <path id="svg_19" fill-rule="nonzero" d="m192.82872,105.88185c0.94921,0.35156 1.92968,0.01172 2.41015,-0.71875c0.4336,-0.69531 0.66016,-1.55859 0.39844,-2.37891c-1.10938,-0.625 -3.71094,-1.0625 -4.67188,-0.26171c-0.09765,0.12109 -0.07421,0.05859 -0.09375,0.10156c-0.50781,1.5625 0.47266,2.68359 1.95704,3.25781" fill="#000000"/>
  <path id="svg_20" fill-rule="nonzero" d="m243.02012,93.18263c-0.46094,0.83985 -1.42578,1.96094 -2.19531,2.58985c3.95703,2.72265 9.03516,6.24609 16.41016,11.4375c0.1875,0.13281 -0.00782,0.41796 -0.19922,0.28515c-6.03516,-4.16797 -11.67578,-7.9414 -16.73438,-11.34375c-1.69531,1.07813 -3.35547,0.67188 -5.85937,-0.42578c0.5625,0.74219 0.86718,1.44531 0.96093,2.08984c3.84375,2.57032 8.64063,5.72657 12.73438,8.6211c0.02344,-0.41406 0.09766,-0.82813 0.23828,-1.22266c0.25,0.64453 0.50391,1.28516 0.75781,1.92969c2.78125,1.99609 3.64453,2.94141 6.41016,4.10156c1.42187,0.58985 3.81641,1.375 5.29687,0.94141c2.1836,-0.66406 0.03907,-4.6836 -1.18359,-6.53516c-1.01953,-1.41406 -0.73828,-1.02344 -1.27344,-1.76172c-3.48828,-4.48828 -9.25,-7.72265 -15.36328,-10.70703" fill="#000000"/>
  <path id="svg_21" fill-rule="nonzero" d="m261.32872,77.78419c-10.85938,-0.19921 -7.09766,-0.73046 -9.3086,0.92969c-0.89844,0.66797 -1.91015,1.17578 -2.98828,1.56641c9.24609,1.45703 19.36328,2.92969 28.23438,3.42578c0.22656,0.01172 0.21093,0.35937 -0.01954,0.34766c-10.16015,-0.41797 -20.48046,-1.9375 -29.625,-3.34766c-0.53515,0.13672 -1.07812,0.25391 -1.63281,0.34375c1.16406,0.05859 2.23047,0.14453 2.99219,0.36328c1.78516,0.58984 2.17187,1.80078 1.59375,3.32031c9.17578,2.63672 7.51953,2.69922 12.82812,3.55469c4.78125,0.76172 6.64063,0.57813 8.51954,0.40625c1.78906,-0.16797 3.87109,-0.46875 5.58203,-1.00781c3.65625,-1.17578 3.86718,-3.92188 0.61328,-6.10156c-2.46094,-1.70313 -2.94141,-1.65625 -6.10156,-2.60938c-2.41797,-0.72656 -8.16016,-1.14453 -10.6875,-1.19141" fill="#000000"/>
  <path id="svg_22" fill-rule="nonzero" d="m252.03965,72.31935c10.9961,-0.91406 21.31641,-1.07422 31.16016,-2.11719c0.22656,-0.02343 0.26953,0.32032 0.03516,0.34766c-10.17579,1.21484 -23.17969,1.70703 -32.59375,2.55078c-0.48047,0.21484 -0.96875,0.38672 -1.45313,0.53906c1.66797,0.28125 4.25391,1.00391 4.17578,3.14844c15.19531,0.52734 15.4336,-0.05078 23.23047,-0.72266c8.67578,-0.74609 15.64063,-6.12109 12.46094,-8.32031c-1.79688,-1.24219 -5.77735,-1.44531 -8.08594,-1.36328c-7.4375,0.27344 -18.14844,1.15234 -26.50781,2.375c-0.20703,1.3125 -1.21485,2.71875 -2.42188,3.5625" fill="#000000"/>
  <path id="svg_23" fill-rule="nonzero" d="m250.18028,85.56935c-0.47266,0.83594 -1.5,2.21094 -1.8711,2.58984c-0.37109,0.34766 -0.92187,0.61329 -1.5664,0.8125c7.44531,3.36329 15.27344,6.86329 20.41015,9.07032c0.21094,0.08984 0.07813,0.41015 -0.13671,0.32031c-28.40235,-11.71484 -17.4375,-8.6875 -24.75782,-8.90625c0.96485,0.72266 1.38282,1.60156 1.17578,2.64453c7.36329,3.43359 7.95704,4.49609 10.1875,5.38672c5.30079,2.08594 8.46875,3.50781 13.72266,3.375c0.96875,-0.02344 1.89453,-0.22266 2.44922,-0.64844c1.96094,-1.5664 -3.55469,-6.55859 -5.60938,-8.09765c-4.01953,-3 -8.88281,-4.96485 -14.0039,-6.54688" fill="#000000"/>
  <g id="svg_24" clip-path="url(#f75187d763)">
   <path id="svg_25" fill-rule="nonzero" d="m291.67637,35.12794c-4.60156,1.44532 -10.35547,4.64454 -16.79687,8.14454c-6.75782,4.33984 -14.78516,7.99218 -20.72657,10.0039c0.46485,0.73438 0.17969,1.55469 -0.41406,2.33203c12.42578,-4.08984 24.16406,-8.9375 34.97266,-17.07031c0.18359,-0.13672 0.39453,0.13672 0.21094,0.28125c-10.71485,8.29297 -22.45313,13.24609 -34.875,17.40234c-1.95313,0.66407 -0.64844,0.0586 -2.73829,1.61719c-0.95703,0.72266 -2.16015,1.39453 -3.53906,2.02344c2.83594,-0.67188 5.49219,-1.24609 6.69141,-1.05859c0.89453,0.17578 1.39844,0.60937 1.58594,1.20703c9.10546,-2.73438 20.36718,-7.20703 29.59765,-12.53125c2.4375,-1.47657 7.10938,-7.40235 8.22656,-10.76172c0.65235,-1.94922 -0.08203,-2.25 -2.19531,-1.58985" fill="#000000"/>
  </g>
  <path id="svg_26" fill-rule="nonzero" d="m290.80137,48.94435c-0.09765,0 -0.02734,0.00391 0.07031,0.00391c-0.02343,0 -0.04687,-0.00391 -0.07031,-0.00391" fill="#000000"/>
  <path id="svg_27" fill-rule="nonzero" d="m254.61778,64.1631c11.01953,-2.94531 22.61328,-6.11328 32.96875,-10.94531c0.20703,-0.09766 0.35547,0.21094 0.14844,0.3125c-15.39844,7.43359 -32.70313,10.70703 -33.94141,11.72656c8.90234,-1.58203 17.94141,-3.46875 26.33203,-6.44141c0.21484,-0.07812 0.33594,0.2461 0.11719,0.32813c-8.97266,3.3125 -18.33203,5.28516 -27.24219,6.88672c0.65625,0.33594 1.20703,0.85937 1.41016,1.57812c14.21484,-1.6875 13.36328,-0.9375 26.33984,-5.04297c4,-1.32031 12.64844,-10.94531 11.14453,-12.26953c-0.40625,-0.50781 -2.05078,-0.24218 -2.6914,-0.10937c-14.02735,3.08984 -18.81641,7.13672 -33.16016,11.05859c-0.18359,0.7461 -0.87109,1.96094 -1.42578,2.91797" fill="#000000"/>
  <path id="svg_28" fill-rule="nonzero" d="m149.73106,253.95607c-0.14453,-4.13672 1.94141,-7.05078 5.28906,-9.40234c-0.02734,-3.47266 -0.05469,-6.99219 -0.08203,-10.54297c-6.44531,3.38672 -12.01953,8.3164 -13.08203,15.46093c-0.87891,5.6211 0.41797,11.73438 4.30078,16.14454c9.93359,11.28515 31.53906,8.66015 30.10547,20.16015c-0.33594,2.4375 -2.35938,4.08985 -4.48047,5.32031c-0.01562,2.16407 -0.03125,4.25782 -0.04687,6.27735c4.17187,-1.74219 8.20312,-4.23438 9.85546,-8.46875c0.72266,-1.88281 1.0625,-3.95313 0.92579,-5.96485c-0.28125,-4.2539 -2.9336,-7.43359 -6.41797,-9.80468c-10.24219,-6.91016 -25.86719,-6.59766 -26.36719,-19.17969" fill="#000000"/>
  <path id="svg_29" fill-rule="nonzero" d="m191.96543,93.75685c-1.00781,-4.49609 -0.46484,-3.65234 -0.68359,-0.18359c0.22266,0.05078 0.45313,0.11328 0.68359,0.18359" fill="#000000"/>
  <path id="svg_30" fill-rule="nonzero" d="m145.51622,95.40919c-0.92188,0.10938 -1.50782,-0.48828 -1.87891,-1.4414c-0.34766,1.6875 -0.78125,3.57812 -1.20313,5.69531c0.86329,-0.41406 1.74219,-0.80469 2.62891,-1.17578c0.12891,-0.97656 0.28125,-2.01172 0.45313,-3.07813" fill="#000000"/>
  <path id="svg_31" fill-rule="nonzero" d="m124.78965,107.61623c2.07032,-2.54688 3.35547,-6.01172 4.71485,-10.21485c-0.48828,0.29688 -0.90625,0.48828 -1.17969,0.51563c-0.39844,0.07422 -1.01172,-0.15625 -1.27734,-0.48438c-0.71094,-0.78906 -0.76172,-2.29687 -0.62891,-3.42187c-0.95703,2.67968 -1.98047,5.73047 -2.98047,9.09375c-0.07031,0.23047 -0.41797,0.13281 -0.35937,-0.10157c1.44921,-5.50781 2.60937,-9.09375 4.08984,-12.99218c0.64844,-2.72657 0.99609,-2.66407 -0.14453,-0.91797c-0.96485,1.51562 -1.48438,2.24219 -2.96485,3.02344c-1.74609,4.91406 -4.16406,9.48437 -4.59375,12.89453c-0.42968,4.09375 2.13672,6.52734 5.32422,2.60547" fill="#000000"/>
  <path id="svg_32" fill-rule="nonzero" d="m98.43418,100.02638c3.4375,-1.0625 10.3125,-8.55078 16.51172,-13.32812c-0.96875,0.16406 -2.01172,0.25 -2.95312,0.2539c-3.77344,2.4336 -9.30469,5.73828 -13.46094,8.73438c-0.19922,0.14062 -0.41797,-0.14844 -0.22656,-0.29688c4.85937,-3.7539 8.72265,-6.08593 12.5,-8.48047c-1.16016,-0.09765 -1.54297,-0.26562 -2.01563,-0.62109c-4.28125,2.42578 -12.96093,6.89063 -15.4375,9.98438c-2.63672,3.25 1.39063,4.89062 5.08203,3.7539" fill="#000000"/>
  <path id="svg_33" fill-rule="nonzero" d="m126.34434,111.69435c2.75781,-3.1875 2.3125,-2.09766 2.55078,-3.04687c-1.16797,-0.90625 -1.10937,-1.69141 -1.03125,-2.9961c-1.60156,6.44922 -1.61719,6.15625 -1.51953,6.04297" fill="#000000"/>
  <path id="svg_34" fill-rule="nonzero" d="m101.46934,105.36623c1.51172,0.47265 7.02734,-1.27344 8.66406,-3.48829c1.38282,-1.93359 2.1875,-3.14843 6.89063,-11.9375c-0.08203,-0.9414 1.2539,-3.4414 1.58203,-4.00781c-3.82422,4.8086 -9.28125,9.96485 -14.82031,15.97656c-0.16407,0.17969 -0.4375,-0.0664 -0.27735,-0.25c5.82032,-6.64843 10.34766,-11 14.35547,-15.92968c-0.54297,0.36328 -1.35156,0.64843 -2.27344,0.84765c-6.95312,6.58203 -11.77734,9.92969 -14.36328,13.16016c-2.58984,3.23437 -3.91015,4.36719 0.24219,5.62891" fill="#000000"/>
  <path id="svg_35" fill-rule="nonzero" d="m77.26231,36.04591c-0.03906,-0.02343 -0.03516,-0.01953 0,0" fill="#000000"/>
  <path id="svg_36" fill-rule="nonzero" d="m84.26622,42.64748c17.4375,9.33984 26.10937,10.53515 30.07421,10.45703c-0.29296,-0.31641 -0.48437,-0.39063 -0.30468,-0.97657c0.15625,-0.42968 0.55078,-0.92578 0.87109,-1.25c0.33594,-0.34375 0.44531,-0.17578 -0.68359,-0.30078c-1.39844,-0.15625 -2.83594,-0.63672 -4.13672,-1.34765c-9.42969,-0.6211 -21.09766,-7.44532 -28.58203,-12.23047c-0.20313,-0.12891 -0.00782,-0.4375 0.19922,-0.3125c7.77343,4.7539 17.75781,10.27734 27.13671,11.7539c-0.92187,-0.67187 -1.71875,-1.46875 -2.3125,-2.35937c-6.35546,-1.62109 -17.4375,-6.85156 -20.625,-8.75c-3.91796,-2.32422 -6.82031,-4.68359 -7.48437,-2.97656c-0.31641,0.83984 -0.14063,2.77343 0.22266,3.6289c0.84375,1.95703 3.65234,3.57422 5.625,4.66407" fill="#000000"/>
  <path id="svg_37" fill-rule="nonzero" d="m129.60997,108.30763c2.1289,-1.99219 4.29687,-3.65625 6.63671,-5.17969c0.15625,-1.65234 0.51172,-3.26562 0.88282,-4.85937c-1.625,-1.14844 -1.60157,-5.48438 -1.57422,-7.59766c-0.58594,3.32813 -1.78906,7.44922 -2.6211,12.90235c-0.03515,0.23437 -0.39062,0.1914 -0.36718,-0.04688c0.33203,-3.60937 1.15234,-7.29297 1.85937,-10.82031c-0.78125,1.28125 -2.35937,2.82422 -3.76562,3.89844c-1.36719,5.01953 -1.55469,4.21484 -1.63282,6.88672c-0.08593,2.44531 -0.60937,3.94531 0.58204,4.8164" fill="#000000"/>
  <path id="svg_38" fill-rule="nonzero" d="m79.04356,42.74904c8.35547,4.77734 17.39062,8.75781 26.74609,11.63672c0.00782,-0.58594 0.31641,-1.0586 0.86719,-1.33203c-5.43359,-1.35157 -24.91016,-8.9375 -28.32812,-13.625c-2.32813,-1.08204 -2.48829,-0.25 -2.14844,2.43359c0.16797,1.28125 -0.05469,2.26562 2.96094,3.96875c2.44921,0.99609 17.39062,8.67578 29.0039,11.75391c-1.25,-0.83594 -1.95703,-1.71875 -2.22656,-2.4961c-8.82422,-2.23047 -20.125,-7.85547 -27.0625,-12.02344c-0.20703,-0.125 -0.02344,-0.4375 0.1875,-0.3164" fill="#000000"/>
  <g id="svg_39" clip-path="url(#33115b90cf)">
   <path id="svg_40" fill-rule="nonzero" d="m76.31309,45.02248c-0.5,-0.51563 -0.84375,-1.06641 -0.98047,-1.69532c-0.15234,-0.875 -0.41797,-2.64453 -0.32812,-3.53515c-12.10547,-6.59766 -21.05469,-14.66797 -28.65625,-25.00391c-0.13672,-0.1875 0.14062,-0.39062 0.27734,-0.21094c8.25,10.88282 17.38672,18.44532 28.53906,24.51563c0.38672,-1.07031 1.31641,-1.36328 2.41797,-1.07422c-0.0664,-0.20313 -0.12109,-0.42578 -0.16406,-0.66016c-15.22266,-7.8125 -29.83594,-27.51953 -34.05469,-29.52343c-1.07812,-0.53125 -1.70703,-0.22266 -2.04687,0.79296c-0.73047,2.20704 0.19922,5.95313 1.04297,8.26563c1.73828,4.66016 3.86328,6.80469 5.60546,8.61328c8.59766,8.87891 18.84375,15.61328 28.34766,19.51563" fill="#000000"/>
  </g>
  <path id="svg_41" fill-rule="nonzero" d="m75.47715,46.37794c-0.86718,0.47266 -0.72265,2.14063 -0.08203,3.14063c0.79688,1.23437 2.60547,2.52344 4.35156,3.54687c4.52735,1.27735 14.92579,5.52344 24.59375,7.44532c-0.0664,-0.1836 -0.14453,-0.5 -0.16015,-0.77344c-8.88281,-1.98047 -18.65235,-6.43359 -25.84766,-9.73047c-0.21875,-0.09766 -0.07031,-0.43359 0.15235,-0.33594c9.14062,3.97266 17.17187,7.375 25.78125,9.35157c0.20703,-0.57813 0.72656,-0.94532 1.45703,-1.01954c0.83593,-0.07031 4.1875,0.5586 3.9375,0.44141c-0.57422,-0.27734 -3.16797,-0.49609 -11.39453,-3.48047c-14.78125,-5.35547 -20.75782,-9.73437 -22.78907,-8.58594" fill="#000000"/>
  <path id="svg_42" fill-rule="nonzero" d="m78.95372,86.96779c0.83203,1.46094 4.63281,1.57812 6.3164,1.45703c3.94141,-0.30078 19.66016,-6.16016 22.9961,-7.51953c0.35546,-0.64453 0.77343,-1.1875 1.10156,-1.45313c3.90234,-2.60156 4.67187,-1.55078 2.05859,-1.90625c-9,4.35938 -20.90625,6.75 -29.95703,7.3086c-0.24219,0.01562 -0.26953,-0.35157 -0.02734,-0.3711c9.74609,-0.78125 19.78906,-3.19922 28.85547,-7.23047c-0.32422,-0.1289 -0.62891,-0.28125 -0.91797,-0.46484c-6.1211,2.33984 -14.9961,4.07031 -21.63672,4.48047c-8.91797,1.40234 -13.36719,-0.31641 -8.78906,5.69922" fill="#000000"/>
  <path id="svg_43" fill-rule="nonzero" d="m122.29356,95.00685c0.26953,-0.76172 0.5625,-1.60156 0.85547,-2.44922c-1.42578,0.63281 -2.4336,1.04297 -3.05078,1.03516c-1.33985,2.54297 -3.07813,5.51953 -4.57813,9.29687c-0.08594,0.22266 -0.42187,0.10157 -0.34765,-0.125c1.03125,-3.19531 2.67968,-6.33593 4.20312,-9.32422c-1.01953,-0.42968 -1.82812,-1.68359 -2.17969,-2.70703c-2.96093,5.96094 -6.82031,11.92578 -6.19531,14.58985c0.23438,1.08593 1.35938,1.6289 2.34766,2.14843c1.44922,0.81641 2.83984,0.63672 4.23047,-1.47656c0.16015,-0.6289 0.33593,-1.2539 0.52734,-1.875c0.02344,0.33203 0.02344,0.66797 0,1c0.89844,-1.66015 1.53516,-3.90625 4.1875,-10.11328" fill="#000000"/>
  <path id="svg_44" fill-rule="nonzero" d="m74.12559,53.44826c-1.71484,0.53906 0.625,2.51953 2.0625,3.58984c5.41797,4.03125 19.53125,6.76563 29.81641,7.33984c0.11328,-0.52734 0.36718,-0.80078 0.69922,-0.92578c-0.10157,-0.08203 -0.20313,-0.16406 -0.30079,-0.25c-8.8164,0.14063 -21.0664,-4.40234 -29.39843,-7.16015c-0.22657,-0.07422 -0.11719,-0.42188 0.11328,-0.35157c12.41015,3.82813 19.92578,6.35547 28.6914,6.96094c-0.48828,-0.5 -0.90625,-1.03125 -1.20703,-1.57812c-14.51953,-2.47657 -26.6875,-8.64844 -30.47656,-7.625" fill="#000000"/>
  <path id="svg_45" fill-rule="nonzero" d="m73.21153,63.69044c0.23047,0.38672 0.32031,0.63672 0.83594,0.97266c0.62109,0.39063 1.45703,0.64063 2.32421,0.82031c3.85547,-0.10937 14.91407,3.6875 31.5625,3.67188c-0.42578,-0.46485 -0.79296,-0.9961 -1.09375,-1.54688c-9.84375,0.19141 -21.90234,-2.72265 -30.99218,-4.48828c-0.24219,-0.04687 -0.17188,-0.41015 0.0664,-0.36719c12.88672,2.32813 21.56641,4.16407 30.59375,4.19141c-0.25781,-0.58594 -0.4375,-1.16406 -0.50781,-1.67187c-3.71484,-0.1836 -12.86719,-1.19141 -19.46094,-2.89063c-15.22265,-3.10156 -16.39843,-4.1875 -13.32812,1.30859" fill="#000000"/>
  <path id="svg_46" fill-rule="nonzero" d="m76.442,78.51466c2.28906,1.22657 3.97656,1.53907 6.51562,1.73047c7.01953,0.41406 18.83985,-1.5 26.10156,-3.66797c-0.37109,-0.26562 -0.71093,-0.57031 -1.0039,-0.89843c-7.02344,1.53515 -19.66797,1.62109 -25.9336,1.54687c-0.24609,0 -0.24609,-0.36719 0,-0.37109c8.40235,-0.11719 17.19922,-0.54297 25.52735,-1.67578c-0.23828,-0.32813 -0.4375,-0.66797 -0.58594,-1.00782c-10.15625,0.64063 -25.5625,-0.20703 -29.48828,0.53907c-3.42969,0.66406 -4.22266,2.10546 -1.13281,3.80468" fill="#000000"/>
  <path id="svg_47" fill-rule="nonzero" d="m73.46934,68.56154c0.55469,3.13672 4.0625,4.10156 7.17969,4.78906c5.0039,-0.22266 12.03906,0.4375 19.80078,0.50781c2.12109,-0.17187 4.23047,-0.375 6.35156,-0.55468c-0.08203,-0.45704 -0.04687,-0.88282 0.11328,-1.25c-8.8125,0.64062 -19.07812,-0.5 -26.57422,-1.69922c-0.24218,-0.03516 -0.1875,-0.40235 0.05469,-0.36719c9.08594,1.26562 18.21485,1.96484 27.27735,1.26562c1.20312,-0.65234 5.61718,-0.51953 3.05859,-0.61718c-0.85156,-0.01172 -1.64844,-0.42188 -2.33984,-1.03125c-17.45313,0.33984 -28.3711,-3.32422 -32.25,-3.04688c-1.41016,0.13281 -2.91016,0.6211 -2.67188,2.00391" fill="#000000"/>
  <path id="svg_48" fill-rule="nonzero" d="m85.07481,93.20607c2.87891,3.96094 4.72266,3.30469 9.68359,0.3125c3.53516,-2.13281 8.54688,-5.01172 13.57032,-7.66406c-0.37891,-0.45703 -0.61329,-1.02344 -0.71094,-1.64453c-4.44922,1.97265 -9.89453,4.39843 -16.83985,7.83593c-0.21875,0.10938 -0.38671,-0.21875 -0.16796,-0.33203c18.76171,-9.80859 16.76171,-7.30469 16.99609,-8.92969c0.09375,-0.80078 1.37109,-0.77343 -9.61328,3.07422c-3.34766,1.1836 -6.26953,2.11328 -8.21094,2.67969c-3.51562,1.04688 -6.71484,1.8125 -4.70703,4.66797" fill="#000000"/>
  <path id="svg_49" fill-rule="nonzero" d="m127.07481,106.12013c-2.03125,3.45703 -4.35547,4.94922 -6.04688,4.64453c-2.17187,6.83985 -3.85546,13.52735 -3.65234,19.0586c1.25391,-6.23438 3.96094,-11.95313 8.05859,-17.03516c0.5625,-2.22266 1.10938,-4.44922 1.64063,-6.66797" fill="#000000"/>
  <path id="svg_50" fill-rule="nonzero" d="m111.0709,107.31544c-1.27734,-1.07421 -1.33203,-2.32031 -0.96875,-3.94531c-5.0625,4.30469 4.64453,-6.76953 -20.64453,22.83985c-0.14844,0.17578 -0.41406,-0.04688 -0.26562,-0.22266c13.9375,-16.8125 13.77343,-16.54297 17.07812,-20.46484c-1.99609,0.76953 -4.04297,1.15234 -5.12109,0.84765c-0.19922,-0.0625 -0.41016,-0.1289 -0.6211,-0.19922c-5.64062,6.15235 -10.44531,12.26953 -12.3164,19.46094c-1.10156,4.23828 -0.09375,4.78906 3.45312,3.03125c2.19532,-1.13672 5.10547,-3.76562 6.88672,-5.49219c7.16797,-7.42578 4.47266,-3.39453 12.51953,-15.85547" fill="#000000"/>
  <path id="svg_51" fill-rule="nonzero" d="m98.80137,105.34669c-1.09375,-0.77734 -1.32812,-1.79296 -0.92578,-2.77734c0.26563,-0.65625 1.24219,-1.71875 1.16797,-1.6875c-6.33594,5.76953 -12.35547,11.48828 -17.39063,16.34375c-0.16796,0.16016 -0.40625,-0.08594 -0.24609,-0.24609c5.45313,-5.40625 10.83203,-10.61328 16.31641,-15.70703c-0.4961,0.10156 -0.99219,0.14843 -1.50391,0.14843c-6.87109,6.21485 -13.42969,12.4375 -18.85156,17.66797c-0.16797,0.16406 -0.40625,-0.08594 -0.24219,-0.24609c19.84766,-19.67578 18.96484,-17.29688 17.44922,-17.59375c-1.14453,-0.23828 -2.03516,-0.73828 -2.57422,-1.41797c-2.03906,1.49609 -3.91797,2.94141 -5.9375,4.64453c-8.10547,7.00391 -12.24609,15.63281 -11.35937,17.55469c0.41406,0.88281 2.42187,0.30469 3.34375,-0.00781c2.47656,-0.85938 4.70703,-2.72266 7.29296,-4.73829c8.31641,-6.55859 6.2461,-4.72656 13.46094,-11.9375" fill="#000000"/>
  <g id="svg_52" clip-path="url(#186e3be98b)">
   <path id="svg_53" fill-rule="nonzero" d="m157.71543,329.25294c0,0.6836 2.22657,1.94532 5.85938,1.94532c3.63672,0 5.86328,-1.26172 5.86328,-1.94532c0,-0.08203 0.02344,-3.49609 0.07031,-9.50781c-3.0039,-1.0664 -7.47265,-1.47656 -11.88281,-2.76172c0.05859,7.72266 0.08984,12.17578 0.08984,12.26953" fill="#000000"/>
  </g>
  <path id="svg_54" fill-rule="nonzero" d="m42.93418,34.96779c8.84766,7.5 21.52735,14.09765 30.89063,17.53125c0.82422,-0.26953 1.93359,-0.24219 3.10156,-0.0625c-1.57812,-1.16016 -2.95312,-2.5586 -3.10547,-4.30469c-12.46484,-5.39453 -23.58203,-12.37109 -32.72265,-22.63672c-0.15625,-0.17578 0.10156,-0.40625 0.2539,-0.23828c9.38282,10.28125 20.29297,16.78125 32.48438,22.14063c0.08203,-0.75782 0.34375,-1.44922 0.98437,-1.86719c-6.28515,-2.33203 -14.69922,-7.67188 -19.99609,-11.81641c-2.26563,-1.82031 -4.73828,-4.17578 -6.79688,-6.34375c-1.89843,-1.42578 -7.15234,-5.22265 -9.30078,-6.13281c-1.71484,-0.71484 -2.35937,-0.30078 -1.97265,1.94141c0.62109,3.3164 3.59375,9.625 6.17968,11.78906" fill="#000000"/>
  <path id="svg_55" fill-rule="nonzero" d="m153.6959,308.00685c-0.33593,-1.73437 0.3711,-3.19922 1.75782,-4.30078c0.04296,-0.03125 0.01562,0.23828 -0.03125,-5.52344c-4.38672,2.39844 -7.10157,5.32422 -6.09375,10.28125c1.86718,9.0625 17.29687,7.73828 22.38671,10.92969c2.29297,1.47656 2.10547,3.92969 -0.1875,5.41406c-0.00781,1.1875 -0.01562,2.15235 -0.01953,2.875c1.19141,-0.5039 2.34375,-1.16406 3.20703,-2.1289c1.34375,-1.48438 1.89844,-3.69141 1.32032,-5.60157c-2.22657,-7.16406 -21.03516,-5.34375 -22.33985,-11.94531" fill="#000000"/>
  <path id="svg_56" fill-rule="nonzero" d="m73.8834,66.03029c-8.91015,-1.60156 -18.26953,-3.57422 -27.23828,-6.88672c-0.21875,-0.08203 -0.10156,-0.40625 0.11328,-0.32813c8.39063,2.97266 17.42969,4.85938 26.33203,6.44141c-1.19921,-0.99219 -18.62109,-4.32812 -33.9375,-11.72656c-0.21093,-0.10156 -0.0625,-0.41016 0.14454,-0.3125c10.35937,4.83203 21.95312,8 32.96875,10.94531c-0.55469,-0.95703 -1.23829,-2.17187 -1.42579,-2.91797c-14.34375,-3.92187 -19.13281,-7.96875 -33.16015,-11.05859c-0.64063,-0.13281 -2.28516,-0.39844 -2.69141,0.10937c-1.5,1.32422 7.14453,10.94922 11.14844,12.26953c12.97656,4.10547 12.12109,3.35547 26.33984,5.04297c0.20313,-0.71875 0.75,-1.24218 1.40625,-1.57812" fill="#000000"/>
  <path id="svg_57" fill-rule="nonzero" d="m73.52403,76.7881c-0.08203,-2.14453 2.5039,-2.86719 4.17578,-3.14844c-0.48828,-0.15234 -0.97656,-0.32422 -1.45703,-0.53906c-9.41406,-0.84375 -22.41797,-1.33594 -32.59375,-2.55078c-0.23047,-0.02734 -0.19141,-0.37109 0.03515,-0.34766c9.84375,1.04297 20.16797,1.20313 31.16016,2.11719c-1.20703,-0.84375 -2.21484,-2.25 -2.42187,-3.5625c-8.35938,-1.22266 -19.07032,-2.10156 -26.50782,-2.375c-2.30859,-0.08203 -6.28906,0.12109 -8.08593,1.36328c-3.17969,2.19922 3.78906,7.57422 12.46093,8.32031c7.79688,0.67188 8.03907,1.25 23.23438,0.72266" fill="#000000"/>
  <g id="svg_58" clip-path="url(#f9d5f6846c)">
   <path id="svg_59" fill-rule="nonzero" d="m70.84043,60.01076c0.1836,-0.59766 0.6875,-1.03125 1.58594,-1.20703c1.19922,-0.1875 3.85547,0.38671 6.6875,1.05859c-1.3789,-0.62891 -2.57812,-1.30078 -3.53906,-2.02344c-2.08594,-1.55859 -0.78125,-0.95312 -2.73828,-1.61719c-12.41797,-4.15625 -24.15625,-9.10937 -34.875,-17.40234c-0.1836,-0.14453 0.02734,-0.41797 0.21094,-0.28125c10.80859,8.13281 22.54687,12.98047 34.97265,17.07031c-0.59375,-0.77734 -0.875,-1.59765 -0.41406,-2.33203c-5.94141,-2.01172 -13.96875,-5.66406 -20.72656,-10.0039c-6.44141,-3.5 -12.19532,-6.69922 -16.79688,-8.14454c-2.11328,-0.66015 -2.84375,-0.35937 -2.1914,1.58985c1.11718,3.35937 5.78515,9.28515 8.22265,10.76172c9.23047,5.32422 20.49219,9.79687 29.60156,12.53125" fill="#000000"/>
  </g>
  <path id="svg_60" fill-rule="nonzero" d="m76.30918,84.73341c-0.57812,-1.51953 -0.1875,-2.73047 1.59375,-3.32031c0.76563,-0.21875 1.82813,-0.30469 2.9961,-0.36328c-0.5586,-0.08984 -1.10156,-0.20703 -1.63672,-0.34375c-9.14453,1.41016 -19.46094,2.92969 -29.62109,3.34766c-0.23438,0.01171 -0.25,-0.33594 -0.02344,-0.34766c8.87109,-0.49609 18.99219,-1.96875 28.23437,-3.42578c-1.07812,-0.39063 -2.08593,-0.89844 -2.98828,-1.56641c-2.20703,-1.66015 1.55078,-1.1289 -9.30859,-0.92969c-2.52344,0.04688 -8.26563,0.46485 -10.6875,1.19141c-3.16016,0.95313 -3.63672,0.90625 -6.10156,2.60938c-3.25,2.17968 -3.04297,4.92578 0.61328,6.10156c1.71093,0.53906 3.79687,0.83984 5.58203,1.00781c1.8789,0.17188 3.73828,0.35547 8.51953,-0.40625c5.3125,-0.85547 3.65625,-0.91797 12.82812,-3.55469" fill="#000000"/>
  <path id="svg_61" fill-rule="nonzero" d="m92.442,95.7256c-2.5,1.09766 -4.16407,1.50391 -5.85938,0.42578c-5.05859,3.40235 -10.69922,7.17578 -16.73437,11.34375c-0.1875,0.13281 -0.38672,-0.15234 -0.19922,-0.28515c7.375,-5.19141 12.45703,-8.71485 16.41406,-11.4375c-0.77344,-0.62891 -1.73828,-1.75 -2.19531,-2.58985c-6.11719,2.98438 -11.87891,6.21875 -15.36719,10.70703c-0.53125,0.73828 -0.25,0.34766 -1.27344,1.76172c-1.21875,1.85156 -3.36718,5.8711 -1.17968,6.53516c1.48046,0.43359 3.875,-0.35156 5.29296,-0.94141c2.76563,-1.16015 3.62891,-2.10547 6.41407,-4.10156c0.25,-0.64453 0.5039,-1.28516 0.75781,-1.92969c0.13672,0.39453 0.21094,0.8086 0.23437,1.22266c4.09766,-2.89453 8.89454,-6.05078 12.73438,-8.6211c0.09375,-0.64453 0.40234,-1.34765 0.96094,-2.08984" fill="#000000"/>
  <path id="svg_62" fill-rule="nonzero" d="m83.45372,92.1006c-0.20704,-1.04297 0.20703,-1.92187 1.17187,-2.64453c-7.31641,0.21875 3.64844,-2.80859 -24.75391,8.90625c-0.21875,0.08984 -0.34765,-0.23047 -0.14062,-0.32031c5.13672,-2.20703 12.96484,-5.70703 20.41016,-9.07032c-0.64454,-0.19921 -1.19141,-0.46484 -1.5625,-0.8125c-0.375,-0.3789 -1.39844,-1.7539 -1.8711,-2.58984c-5.125,1.58203 -9.98828,3.54688 -14.00781,6.54688c-2.05469,1.53906 -7.57031,6.53125 -5.60547,8.09765c0.55469,0.42578 1.48047,0.625 2.44922,0.64844c5.25391,0.13281 8.41797,-1.28906 13.71875,-3.375c2.23047,-0.89063 2.82422,-1.95313 10.19141,-5.38672" fill="#000000"/>
  <path id="svg_63" fill-rule="nonzero" d="m118.7545,107.72951c-2.47657,5.79687 -5.1836,11.42968 -7.73047,15.71875c-0.11719,0.19922 -0.41406,0.02343 -0.30078,-0.17578c3.21875,-5.63672 7.92187,-16.16797 7.94531,-17.13282c-0.80469,1.35547 -1.69922,2.3086 -2.80469,2.66407c-3.32031,7.32031 -7.00781,14.69921 -11.375,21.89062c-0.12109,0.19531 -0.41797,0.01953 -0.30078,-0.17969c4.07422,-6.91406 7.66797,-14.23047 10.94922,-21.5664c-0.90625,0.0664 -1.94922,-0.24219 -3.16797,-0.9961c-3.08203,4.96485 -4.51953,7.27344 -5.64453,8.82422c-2.36328,4.82031 -3.99219,9.42188 -3.92578,13.45703c0.11328,4.0586 1.39844,4.97657 5.70312,1.23828c0.32032,-0.4414 0.5586,-0.94531 0.6836,-1.47656c0.12109,0.17578 0.20703,0.36719 0.26562,0.56641c0.28906,-0.70313 0.5,-1.44141 0.59375,-2.19922c0.13281,0.45312 0.26172,0.91406 0.29297,1.38672c2.58984,-2.59375 5.15234,-5.7461 7.33594,-10.78516c0.67969,-2.93359 1.5625,-5.92969 2.52734,-8.84375c-0.51562,-0.51562 -0.88281,-1.3164 -1.04687,-2.39062" fill="#000000"/>
  <path id="svg_64" fill-rule="nonzero" d="m247.93418,86.96779c4.57813,-6.01563 0.12891,-4.29688 -8.79296,-5.69922c-6.64063,-0.41016 -15.51563,-2.14063 -21.63282,-4.48047c-0.28906,0.18359 -0.59765,0.33594 -0.92187,0.46484c9.0664,4.03125 19.10937,6.44922 28.85547,7.23047c0.24609,0.01953 0.21875,0.38672 -0.02735,0.3711c-9.05078,-0.5586 -20.95703,-2.94922 -29.95703,-7.3086c-2.61328,0.35547 -1.84375,-0.69531 2.0625,1.90625c0.32422,0.26563 0.7461,0.8086 1.09766,1.45313c3.33594,1.35937 19.05469,7.21875 22.99609,7.51953c1.6836,0.12109 5.48438,0.00391 6.32031,-1.45703" fill="#000000"/>
  <path id="svg_65" fill-rule="nonzero" d="m241.80918,93.20607c2.00782,-2.85547 -1.1914,-3.62109 -4.70703,-4.66797c-1.9414,-0.56641 -4.86328,-1.49609 -8.21093,-2.67969c-10.98047,-3.84765 -9.70704,-3.875 -9.60938,-3.07422c0.23047,1.625 -1.76953,-0.8789 16.99609,8.92969c0.21485,0.11328 0.04688,0.44141 -0.17187,0.33203c-6.94531,-3.4375 -12.39063,-5.86328 -16.83594,-7.83593c-0.09765,0.62109 -0.33594,1.1875 -0.71094,1.64453c5.01954,2.65234 10.03516,5.53125 13.57032,7.66406c4.96093,2.99219 6.80078,3.64844 9.67968,-0.3125" fill="#000000"/>
  <path id="svg_66" fill-rule="nonzero" d="m233.53184,96.27248c-2.47266,-3.09375 -11.15625,-7.5586 -15.4375,-9.98438c-0.47266,0.35547 -0.85547,0.52344 -2.01172,0.62109c3.77735,2.39454 7.63672,4.72657 12.4961,8.48047c0.1914,0.14844 -0.02735,0.4375 -0.22266,0.29688c-4.16016,-2.9961 -9.6875,-6.30078 -13.46094,-8.73438c-0.94531,-0.0039 -1.98437,-0.08984 -2.95703,-0.2539c6.20313,4.77734 13.07813,12.26562 16.51172,13.32812c3.69141,1.13672 7.71875,-0.5039 5.08203,-3.7539" fill="#000000"/>
  <path id="svg_67" fill-rule="nonzero" d="m138.91856,98.29982c-0.30078,0.20703 -0.67188,0.30078 -1.04688,0.25781c-0.23046,1.54688 -0.41406,2.82031 -0.52343,3.875c1.09375,-0.67578 2.21093,-1.3125 3.35547,-1.90625c0.28515,-1.79687 0.65234,-3.65234 1,-5.48437c-0.94532,1.43359 -2.0625,2.74609 -2.78516,3.25781" fill="#000000"/>
  <path id="svg_68" fill-rule="nonzero" d="m219.97325,73.75685c0.20312,0.00781 0.20703,0.01172 0.0039,-0.01562l-0.0039,0.01562" fill="#000000"/>
  <path id="svg_69" fill-rule="nonzero" d="m253.67247,63.69044c3.07421,-5.49609 1.89453,-4.41015 -13.32422,-1.30859c-6.59766,1.69922 -15.75,2.70703 -19.46094,2.89063c-0.07422,0.50781 -0.25391,1.08593 -0.51172,1.67187c9.02734,-0.02734 17.70703,-1.86328 30.59375,-4.19141c0.24219,-0.04296 0.30859,0.32032 0.07031,0.36719c-9.09375,1.76563 -21.14843,4.67969 -30.99218,4.48828c-0.30469,0.55078 -0.67188,1.08203 -1.09375,1.54688c16.64843,0.01562 27.70312,-3.78125 31.55859,-3.67188c0.87109,-0.17968 1.70312,-0.42968 2.32812,-0.82031c0.51563,-0.33594 0.60157,-0.58594 0.83204,-0.97266" fill="#000000"/>
  <path id="svg_70" fill-rule="nonzero" d="m253.41856,68.56154c0.23437,-1.38281 -1.26563,-1.8711 -2.67578,-2.00391c-3.87891,-0.27734 -14.79297,3.38672 -32.25,3.04688c-0.69141,0.60937 -1.48828,1.01953 -2.33985,1.03125c-2.55859,0.09765 1.85547,-0.03516 3.0586,0.61718c9.0625,0.69922 18.1914,0 27.28125,-1.26562c0.24219,-0.03516 0.29297,0.33203 0.05469,0.36719c-7.5,1.19922 -17.76563,2.33984 -26.57813,1.69922c0.16016,0.36718 0.19531,0.79296 0.11719,1.25c2.11719,0.17968 4.22656,0.38281 6.35156,0.55468c7.75781,-0.07031 14.79297,-0.73047 19.80078,-0.50781c3.11328,-0.6875 6.625,-1.65234 7.17969,-4.78906" fill="#000000"/>
  <path id="svg_71" fill-rule="nonzero" d="m252.76231,53.44826c-3.79297,-1.02344 -15.96094,5.14843 -30.48047,7.625c-0.29687,0.54687 -0.71484,1.07812 -1.20703,1.57812c8.76562,-0.60547 16.28125,-3.13281 28.69141,-6.96094c0.23437,-0.07031 0.34375,0.27735 0.11328,0.35157c-8.33203,2.75781 -20.58203,7.30078 -29.39453,7.16015c-0.10157,0.08594 -0.19922,0.16797 -0.30469,0.25c0.33594,0.125 0.58594,0.39844 0.69922,0.92578c10.28515,-0.57421 24.39843,-3.30859 29.8164,-7.33984c1.44141,-1.07031 3.77735,-3.05078 2.06641,-3.58984" fill="#000000"/>
  <path id="svg_72" fill-rule="nonzero" d="m207.05528,103.23732c-0.84375,-3.14844 -2.76953,-7.01172 -4.23047,-11.12109c-1.48047,-0.78125 -2,-1.50782 -2.96094,-3.02344c-1.14453,-1.7461 -0.79687,-1.8086 -0.14453,0.91797c1.17188,3.08984 2.14453,5.98828 3.21875,9.80078c3.06641,2.1289 3.27734,2.48047 4.11719,3.42578" fill="#000000"/>
  <path id="svg_73" fill-rule="nonzero" d="m249.30918,74.70998c-3.92187,-0.7461 -19.33203,0.10156 -29.48828,-0.53907c-0.14453,0.33985 -0.34765,0.67969 -0.58593,1.00782c8.32812,1.13281 17.125,1.55859 25.53125,1.67578c0.24218,0.0039 0.24218,0.37109 0,0.37109c-6.26563,0.07422 -18.91407,-0.01172 -25.9336,-1.54687c-0.29687,0.32812 -0.63672,0.63281 -1.00781,0.89843c7.26172,2.16797 19.08203,4.08203 26.10156,3.66797c2.53906,-0.1914 4.23047,-0.5039 6.51563,-1.73047c3.09375,-1.69922 2.29687,-3.14062 -1.13282,-3.80468" fill="#000000"/>
  <path id="svg_74" fill-rule="nonzero" d="m199.60997,97.63576c0.8789,0.54297 1.78125,1.125 2.67968,1.73437c-0.61718,-1.91797 -1.23437,-3.71094 -1.82422,-5.35937c0.13672,1.14453 0.08985,2.96875 -0.85546,3.625" fill="#000000"/>
  <path id="svg_75" fill-rule="nonzero" d="m209.18809,105.55373c0.22656,0.29687 0.39844,0.6289 0.51563,0.98828c1.25781,1.58593 2.51953,1.66797 3.83203,0.92968c0.98828,-0.51953 2.11328,-1.0625 2.34765,-2.14843c0.625,-2.66407 -3.23437,-8.62891 -6.19531,-14.58985c-0.34766,1.02344 -1.16016,2.27735 -2.17969,2.70703c1.52344,2.98829 3.17188,6.12891 4.20703,9.32422c0.07422,0.22657 -0.26171,0.34766 -0.35156,0.125c-1.49609,-3.77734 -3.23828,-6.7539 -4.57812,-9.29687c-0.61328,0.00781 -1.6211,-0.40235 -3.04688,-1.03516c0.29297,0.84766 0.58203,1.6875 0.85156,2.44922c2.28516,5.33594 3.86329,9.80469 4.1875,10.09766c-0.01953,-0.32813 -0.02343,-0.65625 0,-0.98438c0.14844,0.47266 0.28125,0.95313 0.41016,1.4336" fill="#000000"/>
  <path id="svg_76" fill-rule="nonzero" d="m272.06309,33.71388c-5.29687,4.14453 -13.71484,9.48438 -19.99609,11.81641c0.64062,0.41797 0.89843,1.10937 0.98047,1.86719c12.1914,-5.35938 23.10156,-11.85938 32.48437,-22.14063c0.15234,-0.16797 0.41016,0.0625 0.25781,0.23828c-9.14453,10.26563 -20.26172,17.24219 -32.72656,22.63672c-0.15234,1.74609 -1.52734,3.14453 -3.10547,4.30469c1.16797,-0.17969 2.27735,-0.20703 3.10156,0.0625c9.36719,-3.4336 22.04297,-10.03125 30.89454,-17.53125c2.58593,-2.16406 5.55859,-8.47266 6.17578,-11.78906c0.38672,-2.24219 -0.25782,-2.65625 -1.97266,-1.94141c-2.14844,0.91016 -7.40234,4.70703 -9.30078,6.13281c-2.05859,2.16797 -4.52734,4.52344 -6.79297,6.34375" fill="#000000"/>
  <path id="svg_77" fill-rule="nonzero" d="m225.41465,105.36623c4.15625,-1.26172 2.83203,-2.39454 0.2461,-5.62891c-2.58594,-3.23047 -7.41016,-6.57813 -14.36328,-13.16016c-0.92579,-0.19922 -1.73438,-0.48437 -2.27735,-0.84765c4.01172,4.92968 8.53516,9.28125 14.35547,15.92968c0.16406,0.1836 -0.10937,0.42969 -0.27344,0.25c-5.54297,-6.01171 -11,-11.16796 -14.82031,-15.97656c0.32422,0.56641 1.66406,3.06641 1.58203,4.00781c4.69922,8.78907 5.50781,10.00391 6.88672,11.9375c1.63672,2.21485 7.15234,3.96094 8.66406,3.48829" fill="#000000"/>
  <path id="svg_78" fill-rule="nonzero" d="m126.53184,52.55373c-2.18359,-0.01954 -5.50391,-2.05469 -9.38672,-0.57032c-0.21484,0.08203 -0.35547,-0.23437 -0.14844,-0.33984c2.95704,-1.50781 6.52344,-0.62891 9.60157,0.57812c0.17968,0.07032 0.125,0.33594 -0.06641,0.33204zm1.51172,26.46093c0.05859,-0.04687 0.14453,-0.05468 0.21094,-0.00781c0.42578,0.29297 -1.39844,1.71875 -3.58203,5.20313c-1.12891,1.78125 -2.07422,3.73437 -3.08204,5.46093c-0.12109,0.20313 -0.42968,0.03907 -0.32812,-0.17578c1.80469,-3.73828 3.54687,-7.8164 6.78125,-10.48047zm-6.83203,-11.5c-3.72266,0.34766 -7.45313,0.45313 -10.91406,-0.77343c-0.22266,-0.07422 -0.11719,-0.41407 0.10937,-0.35157c5.07031,1.39844 8.39453,0.35938 14.39063,0.25782c0.20703,-0.00391 0.25,0.29687 0.04687,0.34765c0.07422,-0.01953 -1.03516,0.34375 -3.63281,0.51953zm3.09375,9.47657c-2.07813,2.2539 -6.39844,3.25 -11.96485,6.01562c-0.21093,0.10547 -0.3789,-0.20312 -0.17578,-0.32422c3.73047,-2.23047 8.64063,-3.85937 11.94922,-6c0.14844,-0.09765 0.40235,0.07813 0.19141,0.3086zm-14,-3.1875c-0.23438,-0.01563 -0.125,-0.26172 0.10937,-0.27344c4.55078,-0.21094 8.77735,-0.35547 13.5,-1.66406c0.17578,-0.05079 0.42578,0.21093 0.14453,0.33203c-3.36328,1.44922 -10.88671,1.8164 -13.7539,1.60547zm18.375,-20.40235c2.5625,1.21485 5.01562,5.69922 7.44922,4.22656c0.17578,-0.10937 0.36328,0.12891 0.21484,0.27735c0.08984,-0.08985 -0.53516,0.6289 -1.25391,0.63672c-2.46093,0.22265 -4.38281,-3.45703 -6.58593,-4.81641c-0.19532,-0.12109 -0.03125,-0.42187 0.17578,-0.32422zm5.875,27.20703c0.47265,0.20703 -1.0586,1.94532 -2.50391,5.78516c-0.75,1.95703 -1.29297,4.08984 -1.92969,5.95703c-0.07812,0.22266 -0.41406,0.12109 -0.35546,-0.10547c1.00781,-3.98437 1.91015,-8.39062 4.58593,-11.58984c0.04688,-0.0586 0.12891,-0.08203 0.20313,-0.04688zm5.82812,-0.15625c0.03516,-0.07031 0.10938,-0.10937 0.1875,-0.09375c0.50782,0.09375 -0.58203,2.08985 -1.10547,6.14844c-0.28125,2.07813 -0.30859,4.17578 -0.49609,6.18359c-0.01953,0.23047 -0.37109,0.21485 -0.36719,-0.01953c0.05469,-4.09765 -0.08984,-8.52734 1.78125,-12.21875zm8,-2.76953c0.03907,-0.0664 0.11719,-0.10156 0.19532,-0.08203c0.49218,0.12109 -0.69532,2.01172 -1.37891,5.98047c-0.36328,2.03125 -0.46875,4.09766 -0.73828,6.05859c-0.03125,0.23438 -0.37891,0.20313 -0.36719,-0.03515c0.21484,-3.96875 0.23828,-8.44922 2.28906,-11.92188zm-30.69922,-15.43359c-2.76953,0.03515 -5.67578,0.01172 -8.3789,-0.67188c-0.22656,-0.05468 -0.15235,-0.40234 0.08203,-0.35937c5.77344,1.0625 10.64453,-0.2461 16.64062,0.52344c0.08204,0.01171 0.14844,0.07812 0.15625,0.16406c0.02735,0.35156 -0.23046,0.21875 -8.5,0.34375zm-7.0664,-7.01953c-0.21875,-0.08594 -0.10938,-0.41797 0.11719,-0.35157c6.36718,1.88282 13.92968,1.4336 14.01562,2.09766c0.09766,0.75 -9.59766,-0.01562 -14.13281,-1.74609zm5.96094,-5.39453c1.7539,-0.51172 4.3789,-1.00782 6.07421,-0.4375c0.14063,0.04687 0.08594,0.25 -0.05468,0.23437c-0.03516,-0.01953 -0.83594,-0.21094 -2.88672,0.22656c-0.7461,0.16407 -2.88672,0.77344 -3.36719,1.09375c-0.54687,0.34375 -1.09766,0.97657 -1.29687,1.41797c1.08593,1.16406 1.91015,1.33203 3.55859,1.09375c0.46875,-0.0664 1,-0.01172 1.5,0.00781c2.62891,0.13672 5.01562,0.73438 7.28906,1.90235c0.1211,0.0625 0.15235,0.16015 0.10938,0.2539c-0.22657,0.4961 -1.41407,-1.03125 -5.89063,-1.17968c-3.02344,-0.09766 -4.7539,0.61718 -6.48437,-0.63282c-5.41016,-0.0664 -8.82813,-0.71875 -8.3125,0.8711c0.39453,1.15625 3.08203,3.16797 5.21875,3.5c3.17187,0.44922 11.02343,0.21094 14.16797,-0.01172c0.14843,-0.01172 0.17968,0.20312 0.03515,0.23437c-10.02734,2.38672 -19.94922,-0.08203 -20.92578,0.67579c-0.55078,0.46875 0.21484,1.63671 0.67578,2.20312c-0.07422,-0.01172 1.02735,1.24609 2.39844,2.10938c4.62891,0.21093 18.15234,-0.3711 18.03125,0.65625c-0.05078,0.4375 -0.85938,-0.17188 -4.66797,-0.07032c-4.375,0.09375 -6.20312,0.57422 -10.82812,0.5c-3.91016,-0.0625 -3.91016,-0.37109 -3.95704,0.17188c-0.1289,1.53515 1.92969,4.98437 3.83594,5.07031c6.97266,0.36328 4.23047,0.83203 12.00781,-0.46875c0.26563,-0.04297 0.3086,0.30859 0.08594,0.35547c-6.42578,1.29687 -6.97656,1.59375 -13.59765,2.31641c-0.34766,0.05078 -0.71485,0.03906 -1.03907,0.16796c-1.41797,0.56641 0.42969,3.73047 2.84766,4.38282c0.71094,0.1875 8.24219,0.1914 12.06641,-2.16016c0.125,-0.07812 0.25,0.09766 0.14062,0.19531c-1.86328,1.58594 -4.83984,2.46485 -7.59375,2.84766c-1.8125,0.60937 -5.26172,1.86328 -6.26953,3.48828c-0.73828,1.26172 -1.26172,3.07813 -0.42188,4.28125c0.40625,0.69531 1.25,0.71875 1.97657,0.79297c1.65625,0.09766 5.24218,-0.19141 6.42187,-1.10938c2.34375,-1.90625 5.10938,-3.38671 6.9961,-5.59375c0.04296,-0.05078 0.09375,-0.04687 0.13671,-0.02734c0.17188,-0.04687 0.30079,0.18359 0.16797,0.30859c-3.09375,2.92188 -5.32031,5.72657 -6.53906,9.79297c-0.07422,0.31641 -0.19531,0.35547 -0.01953,0.96875c0.23828,0.8125 0.88672,1.9961 1.75391,2.27735c0.42187,0.13281 0.73046,-0.0586 1.875,-0.50391c1.1289,-0.45703 2.49609,-1.05859 3.30468,-1.95703c0.62891,-0.76172 1.875,-2.5625 3.1875,-4.89453c1.78516,-3.28516 1.67188,-3.65625 1.90625,-3.58985c0.0625,0.01954 0.10157,0.08594 0.08203,0.14844c-0.66406,2.29297 -0.76171,1.69922 0.60157,-0.15625c0.16406,-0.22265 0.42968,0.01563 0.30859,0.19531c-1.41406,2.14454 -2.42578,4.3711 -3.08594,7.73438c-0.49218,2.49609 -1.48828,8.60547 0.61328,7.21094c1.76954,-1.08594 3.69141,-2.92188 4.60547,-4.17188c2.08985,-2.85156 3.48047,-10.83594 4.13672,-10.58984c0.6836,0.25 -2.16015,2.60156 -0.71875,12.57812c0.23828,1.57813 0.64453,3.78907 1.85938,2.73438c1.41797,-1.38672 2.89062,-3.59375 3.51953,-5.07422c1,-2.30469 1.15234,-8.17969 1.19922,-10.15625c0,-0.14844 0.21875,-0.16406 0.23828,-0.01563c0.32812,2.39454 -0.27735,0.85547 1.58594,-2.98046c0.05078,-0.10157 0.14843,-0.14454 0.24609,-0.10157c0.68359,0.29297 -2.27734,2.30469 -1.22266,12.39453c0.08594,0.80079 0.21094,2.32422 0.81641,2.9336c0.25391,0.2539 0.64062,0.16406 0.88281,-0.0625c1.03125,-0.89844 1.90235,-1.98438 2.69141,-3.08985c1.33984,-1.91796 1.78125,-3.09765 2.37109,-7.61718c0.41797,-3.94922 0.21094,-4.17578 0.44141,-4.19922c0.15625,-0.01563 0.14453,0.07812 0.22265,1.26172c0.28516,-0.98047 0.65235,-1.94141 1.1211,-2.88282c0.11719,-0.24218 0.42578,-0.0664 0.33594,0.14063c-1.72266,3.9375 -1.24219,5.51953 -1.54297,7.94922c0.01172,2.10937 0.17968,8.22265 1.87109,6.95703c0.15625,-0.11328 0.32031,-0.25 0.49609,-0.40234c-0.01171,-1.39063 -0.01953,-2.7461 -0.03125,-4.0586c-0.08984,-0.00781 -0.17187,-0.07422 -0.16406,-0.1914c0.17969,-3.35547 0.15625,-0.48438 0.01172,-19.95313c-5.14453,2.10938 -5.58594,6.28125 -10.05469,8.78125c-4.15234,2.38281 -15.86328,2.78516 -15.59375,-3.07031c0.24219,-5.25 1.07422,-7.78516 5.10157,-10.97266c-0.66797,0.09375 -1.375,0.08203 -2.10547,0.04688c-0.0586,-0.00391 -0.11719,-0.03907 -0.14063,-0.10157c-0.17969,-0.44921 1.6211,-0.42578 2.79297,-0.8125c2.875,-0.94921 5.47266,-6.94921 -0.34375,-11.17578c-3.54297,-2.55078 -8.36719,-3.41406 -11.97266,-3.69922c-4.65625,-0.36718 -12.66796,-2.82421 -14.82812,-4.07031c-1.35547,-0.78125 2.65234,6.90235 10.03516,6.77735" fill="#000000"/>
  <path id="svg_79" fill-rule="nonzero" d="m172.5045,64.95998c0.30078,-1.31641 2.17968,-8.98829 2.63672,-10.95704c-4.19922,-0.89062 -19.19141,-0.89062 -23.39454,0c0.48438,2.07813 2.35157,9.6875 2.64063,10.95704c3.07812,0.6914 15.03125,0.69531 18.11719,0" fill="#000000"/>
  <path id="svg_80" fill-rule="nonzero" d="m155.94981,95.07326c5.10937,-1.1211 10.16016,-1.63672 15.26562,-1.6836c0.08594,-11.80859 0.15625,-20.94922 0.19532,-26.1875c-4.1836,0.4375 -11.23047,0.45703 -15.66797,0.02735c0.03906,5.48828 0.11328,15.24218 0.20703,27.84375" fill="#000000"/>
  <path id="svg_81" fill-rule="nonzero" d="m175.61387,52.00685c1.82422,-1.59766 3.25,-3.43359 4.3125,-5.50391c6.37891,-12.45703 -2.90234,-27.27343 -16.95703,-26.92578c-7.75,0.19532 -14.24609,5.125 -16.82812,11.90235c-2.71094,7.11718 -0.82813,15.3164 5.1289,20.52734c4.27344,-0.96094 20.02344,-0.96875 24.34375,0" fill="#000000"/>
  <path id="svg_82" fill-rule="nonzero" d="m176.41075,93.48732c0.15234,0 0.30078,-0.00391 0.44922,-0.00391c-0.39844,-2.35937 -0.72657,-4.20312 -0.74219,-4.24218c-0.07031,1.44531 -0.08203,3.3164 -0.99219,4.20312l1.28516,0.04297" fill="#000000"/>
  <path id="svg_83" fill-rule="nonzero" d="m143.28184,92.62404c-0.14062,-0.80078 0.11719,-0.60938 -0.69141,0.92578c-0.375,1.94531 -0.90234,4.17187 -1.41015,6.73437c0.2539,-0.13281 0.51172,-0.26171 0.76953,-0.38671c0.38672,-2.39454 0.91016,-4.88282 1.33203,-7.27344" fill="#000000"/>
  <path id="svg_84" fill-rule="nonzero" d="m146.35997,95.09279c-0.10157,0.91015 -0.26172,1.94531 -0.41797,3.03125c0.96484,-0.38281 1.9375,-0.74219 2.91797,-1.07813c0.24218,-2.01562 0.55078,-4 0.85937,-5.82422c-0.98437,1.48438 -2.45312,3.22266 -3.35937,3.8711" fill="#000000"/>
  <path id="svg_85" fill-rule="nonzero" d="m153.5045,93.83107c-0.27735,0.10156 -0.57422,0.14062 -0.90625,0.07031c-1.7461,-0.40234 -1.74219,-2.86328 -1.83203,-4.66015c-0.01954,0.05468 -0.70313,3.88671 -1.28516,7.59765c1.23828,-0.40625 2.49219,-0.77734 3.75,-1.10937c0.08984,-0.63282 0.17969,-1.26563 0.27344,-1.89844" fill="#000000"/>
  <path id="svg_86" fill-rule="nonzero" d="m192.71934,93.99123c0.36328,0.12109 0.44922,0.1289 1.08984,0.42578c-0.54296,-0.58203 -1.01953,-1.16797 -1.35156,-1.71094c0.08594,0.42578 0.17188,0.85156 0.26172,1.28516" fill="#000000"/>
  <g id="svg_87" clip-path="url(#ab8ba2feab)">
   <path id="svg_88" fill-rule="nonzero" d="m251.72325,39.09279c11.14843,-6.07031 20.28515,-13.63281 28.53515,-24.51563c0.14063,-0.17968 0.41797,0.02344 0.28125,0.21094c-7.60156,10.33594 -16.55468,18.40625 -28.66015,25.00391c0.08984,0.89062 -0.17578,2.66015 -0.32813,3.53515c-0.13281,0.62891 -0.48047,1.17969 -0.98047,1.69532c9.50782,-3.90235 19.75,-10.63672 28.35157,-19.51563c1.74218,-1.80859 3.86718,-3.95312 5.60156,-8.61328c0.84765,-2.3125 1.77344,-6.05859 1.04297,-8.26563c-0.33594,-1.01562 -0.96875,-1.32421 -2.04297,-0.79296c-4.22266,2.0039 -18.83594,21.71093 -34.0586,29.52343c-0.04296,0.23438 -0.09375,0.45703 -0.16015,0.66016c1.09765,-0.28906 2.03125,0.00391 2.41797,1.07422" fill="#000000"/>
  </g>
  <path id="svg_89" fill-rule="nonzero" d="m178.30918,77.6006c0.07813,-0.01953 0.15625,0.01563 0.19532,0.08203c2.04687,3.47266 2.07422,7.95313 2.28515,11.92188c0.01563,0.23828 -0.33593,0.26953 -0.36718,0.03515c-0.26954,-1.96093 -0.375,-4.02734 -0.73829,-6.05859c-0.68359,-3.96875 -1.86718,-5.85938 -1.375,-5.98047zm8.00391,2.75781c0.07813,-0.01562 0.15625,0.02344 0.19141,0.09375c1.86718,3.69141 1.72656,8.1211 1.77734,12.21875c0.00391,0.23438 -0.34766,0.25 -0.36719,0.01953c-0.1875,-2.00781 -0.21484,-4.10546 -0.49609,-6.18359c-0.52344,-4.05859 -1.60938,-6.05469 -1.10547,-6.14844zm6.01563,0.25c0.07421,-0.03515 0.15625,-0.01172 0.20703,0.04688c2.67578,3.19922 3.57422,7.60547 4.58203,11.58984c0.05859,0.22656 -0.27735,0.32813 -0.35156,0.10547c-0.63672,-1.86719 -1.17969,-4 -1.92969,-5.95703c-1.44922,-3.83984 -2.98047,-5.57813 -2.50781,-5.78516zm6.30078,-1.60156c0.0664,-0.04687 0.15234,-0.03906 0.21484,0.00781c3.23438,2.66407 4.97656,6.74219 6.77734,10.48047c0.10157,0.21485 -0.20703,0.37891 -0.32421,0.17578c-1.01172,-1.72656 -1.95704,-3.67968 -3.08204,-5.46093c-2.18359,-3.48438 -4.01171,-4.91016 -3.58593,-5.20313zm3.46093,-12.35937c5.9961,0.10156 9.31641,1.14062 14.38672,-0.25782c0.23047,-0.0625 0.33203,0.27735 0.10938,0.35157c-3.45703,1.22656 -7.1875,1.12109 -10.91406,0.77343c-2.59375,-0.17578 -3.70704,-0.53906 -3.63282,-0.51953c-0.19922,-0.05078 -0.16015,-0.35156 0.05078,-0.34765zm14.37891,6.88281c0.23828,0.01172 0.34766,0.25781 0.10938,0.27344c-2.86329,0.21093 -10.39063,-0.15625 -13.75391,-1.60547c-0.27734,-0.1211 -0.03125,-0.38282 0.14844,-0.33203c4.71875,1.30859 8.94531,1.45312 13.49609,1.66406zm-1.74609,9.15234c0.19922,0.1211 0.03125,0.42969 -0.17969,0.32422c-5.56641,-2.76562 -9.88281,-3.76172 -11.96484,-6.01562c-0.21094,-0.23047 0.04296,-0.40625 0.1914,-0.3086c3.3125,2.14063 8.22266,3.76953 11.95313,6zm-16.34375,-28.95703c-2.19922,1.35938 -4.125,5.03906 -6.58203,4.81641c-0.72266,-0.00782 -1.34375,-0.72657 -1.25391,-0.63672c-0.14844,-0.14844 0.03516,-0.38672 0.21094,-0.27735c2.43359,1.47266 4.89062,-3.01171 7.44922,-4.22656c0.21093,-0.09765 0.375,0.20313 0.17578,0.32422zm1.90625,-1.50391c3.07812,-1.20703 6.64453,-2.08593 9.60547,-0.57812c0.20703,0.10547 0.0664,0.42187 -0.14844,0.33984c-3.88672,-1.48437 -7.20313,0.55078 -9.39063,0.57032c-0.1914,0.0039 -0.24218,-0.26172 -0.0664,-0.33204zm15.86328,2.65625c0.22656,-0.0664 0.33594,0.26563 0.11719,0.35157c-4.53516,1.73047 -14.22657,2.49609 -14.13282,1.74609c0.08594,-0.66406 7.64844,-0.21484 14.01563,-2.09766zm-15.44922,7.02735c0.00781,-0.08594 0.07422,-0.15235 0.15625,-0.16406c5.99609,-0.76954 10.87109,0.53906 16.64453,-0.52344c0.23047,-0.04297 0.30859,0.30469 0.07813,0.35937c-2.70313,0.6836 -5.60547,0.70703 -8.37891,0.67188c-8.26563,-0.125 -8.52734,0.00781 -8.5,-0.34375zm-27.41797,30.65625c0.07813,0.0625 0.15234,0.12109 0.22656,0.17578c1.69532,1.26562 1.85938,-4.84766 1.8711,-6.95703c-0.29688,-2.42969 0.18359,-4.01172 -1.54297,-7.94922c-0.08985,-0.20703 0.21875,-0.38281 0.33594,-0.14063c0.47265,0.94141 0.83593,1.90235 1.12109,2.88282c0.08203,-1.1836 0.06641,-1.27735 0.22266,-1.26172c0.23046,0.02344 0.02734,0.25 0.44531,4.19922c0.58594,4.51953 1.03125,5.69922 2.36719,7.61718c0.53906,0.75782 1.125,1.5 1.76953,2.1875c1.25,-0.14062 1.40625,-0.17187 2.36718,-0.2539c0.14454,-0.60938 0.21094,-1.26953 0.25782,-1.71485c1.05078,-10.08984 -1.91016,-12.10156 -1.22266,-12.39453c0.09375,-0.04297 0.19141,0 0.24219,0.10157c1.86328,3.83593 1.25781,5.375 1.58594,2.98046c0.02343,-0.14843 0.23828,-0.13281 0.24218,0.01563c0.04297,1.97656 0.19532,7.85156 1.19922,10.15625c0.09375,0.22656 0.21485,0.47266 0.34766,0.72656c2.14844,-0.01953 3.11719,0.10547 5.17969,0.44141c1.0625,-8.98438 -1.52735,-11.16797 -0.8711,-11.40625c0.65625,-0.2461 2.04688,7.73828 4.14063,10.58984c0.91015,1.25 2.83593,3.08594 4.60156,4.17188c2.10156,1.39453 1.10937,-4.71485 0.61719,-7.21094c-0.66407,-3.36328 -1.67188,-5.58984 -3.08985,-7.73438c-0.11718,-0.17968 0.14453,-0.41796 0.3086,-0.19531c1.36328,1.85547 1.26562,2.44922 0.60156,0.15625c-0.01563,-0.0625 0.01953,-0.1289 0.08203,-0.14844c0.23438,-0.0664 0.12109,0.30469 1.90625,3.58985c1.3125,2.33203 2.55859,4.13281 3.1875,4.89453c0.80859,0.89844 2.17578,1.5 3.30469,1.95703c1.14844,0.44531 1.45703,0.63672 1.875,0.50391c0.87109,-0.28125 1.51562,-1.46485 1.75781,-2.27735c0.17578,-0.61328 0.05078,-0.65234 -0.02344,-0.96875c-1.21484,-4.0664 -3.4414,-6.87109 -6.53515,-9.79297c-0.13282,-0.125 -0.00782,-0.35546 0.16406,-0.30859c0.04297,-0.01953 0.09766,-0.02344 0.13672,0.02734c1.88672,2.20704 4.65625,3.6875 6.99609,5.59375c1.17969,0.91797 4.76563,1.20704 6.42578,1.10938c0.72266,-0.07422 1.56641,-0.09766 1.97266,-0.79297c0.83984,-1.20312 0.31641,-3.01953 -0.42188,-4.28125c-1.0039,-1.625 -4.45312,-2.87891 -6.26562,-3.48828c-2.75781,-0.38281 -5.73047,-1.26172 -7.59375,-2.84766c-0.11328,-0.09765 0.01562,-0.27343 0.13672,-0.19531c3.82812,2.35156 11.35937,2.34766 12.0664,2.16016c2.41797,-0.65235 4.26954,-3.81641 2.84766,-4.38282c-0.32031,-0.1289 -0.6875,-0.11718 -1.03906,-0.16796c-6.61719,-0.72266 -7.17188,-1.01954 -13.59375,-2.31641c-0.22656,-0.04688 -0.1836,-0.39844 0.08594,-0.35547c7.77343,1.30078 5.03515,0.83203 12.0039,0.46875c1.90625,-0.08594 3.96485,-3.53516 3.83594,-5.07031c-0.04688,-0.54297 -0.04688,-0.23438 -3.95703,-0.17188c-4.625,0.07422 -6.45313,-0.40625 -10.82422,-0.5c-3.80859,-0.10156 -4.61719,0.50782 -4.67188,0.07032c-0.12109,-1.02735 13.40235,-0.44532 18.03125,-0.65625c1.3711,-0.86329 2.47657,-2.1211 2.39844,-2.10938c0.46094,-0.56641 1.22656,-1.73437 0.67578,-2.20312c-0.97265,-0.75782 -10.89453,1.71093 -20.92578,-0.67579c-0.14453,-0.03125 -0.10937,-0.24609 0.03516,-0.23437c3.14844,0.22266 10.99609,0.46094 14.17187,0.01172c2.13282,-0.33203 4.82422,-2.34375 5.21485,-3.5c0.51953,-1.58985 -2.90235,-0.9375 -8.3125,-0.8711c-1.72657,1.25 -3.46094,0.53516 -6.48047,0.63282c-4.48047,0.14843 -5.66797,1.67578 -5.89453,1.17968c-0.03907,-0.09375 -0.00782,-0.1914 0.10937,-0.2539c2.27344,-1.16797 4.66406,-1.76563 7.28906,-1.90235c0.5,-0.01953 1.03125,-0.07421 1.50391,-0.00781c1.64453,0.23828 2.46875,0.07031 3.55469,-1.09375c-0.19922,-0.4414 -0.75,-1.07422 -1.29688,-1.41797c-0.47656,-0.32031 -2.62109,-0.92968 -3.36718,-1.09375c-2.04688,-0.4375 -2.85157,-0.24609 -2.88672,-0.22656c-0.14063,0.01563 -0.19141,-0.1875 -0.05469,-0.23437c1.69922,-0.57032 4.32031,-0.07422 6.07422,0.4375c7.38281,0.125 11.39844,-7.5625 10.03906,-6.77735c-2.13281,1.23047 -10.11719,3.69531 -14.83203,4.07031c-3.60156,0.28516 -8.42578,1.14844 -11.96875,3.69922c-5.82031,4.22657 -3.21875,10.22657 -0.34766,11.17578c1.17188,0.38672 2.97657,0.36329 2.79297,0.8125c-0.02344,0.0625 -0.07812,0.09766 -0.14062,0.10157c-0.72657,0.03515 -1.4375,0.04687 -2.10547,-0.04688c4.03125,3.1875 4.85937,5.72266 5.10156,10.97266c0.27344,5.85547 -11.4375,5.45312 -15.59375,3.07031c-4.39453,-2.46094 -4.85156,-6.48047 -9.78906,-8.66797c-0.03906,5.23047 -0.10156,13.64844 -0.17969,24.31641" fill="#000000"/>
  <path id="svg_90" fill-rule="nonzero" d="m218.04356,48.44044c9.37891,-1.47656 19.36328,-7 27.14062,-11.7539c0.20704,-0.125 0.39844,0.18359 0.19532,0.3125c-7.48438,4.78515 -19.15235,11.60937 -28.58203,12.23047c-1.29688,0.71093 -2.73438,1.1914 -4.13672,1.34765c-1.125,0.125 -1.01953,-0.04297 -0.67969,0.30078c0.32031,0.32422 0.71484,0.82032 0.87109,1.25c0.17578,0.58594 -0.01562,0.66016 -0.30859,0.97657c3.96484,0.07812 12.64062,-1.11719 30.07422,-10.45703c1.97265,-1.08985 4.78125,-2.70704 5.625,-4.66407c0.36328,-0.85547 0.54297,-2.78906 0.22265,-3.6289c-0.66406,-1.70703 -3.5664,0.65234 -7.48046,2.97656c-3.19141,1.89844 -14.27344,7.12891 -20.625,8.75c-0.59766,0.89062 -1.39063,1.6875 -2.31641,2.35937" fill="#000000"/>
  <path id="svg_91" fill-rule="nonzero" d="m177.53184,93.47951c0.25781,-0.00391 0.15625,0.01953 1.30469,-0.05469c-0.58985,-0.69141 -1.19141,-1.47656 -1.67188,-2.20313c0.1211,0.73047 0.2461,1.48438 0.36719,2.25782" fill="#000000"/>
  <path id="svg_92" fill-rule="nonzero" d="m221.16075,58.00294c0.73437,0.07422 1.2539,0.44141 1.45703,1.01954c8.60937,-1.97657 16.64062,-5.37891 25.78515,-9.35157c0.22266,-0.09765 0.3711,0.23828 0.14844,0.33594c-7.19531,3.29688 -16.96484,7.75 -25.84375,9.73047c-0.01953,0.27344 -0.09765,0.58984 -0.16406,0.77344c9.66797,-1.92188 20.06641,-6.16797 24.59375,-7.44532c1.75,-1.02343 3.55859,-2.3125 4.35156,-3.54687c0.64063,-1 0.78906,-2.66797 -0.07812,-3.14063c-2.03125,-1.14843 -8.01172,3.23047 -22.78907,8.58594c-8.23046,2.98438 -10.82031,3.20313 -11.39453,3.48047c-0.25,0.11719 3.09766,-0.51172 3.9336,-0.44141" fill="#000000"/>
  <path id="svg_93" fill-rule="nonzero" d="m183.60215,92.62404c0.02344,0.11719 0.04688,0.23437 0.06641,0.35156c0.10937,-0.00781 0.22266,-0.00781 0.33594,-0.01562c-0.44922,-0.97657 -0.28125,-1.01954 -0.40235,-0.33594" fill="#000000"/>
  <path id="svg_94" fill-rule="nonzero" d="m169.817,278.71779c-3.4375,-1.57813 -7.9336,-2.74219 -12.51172,-4.5c0.10547,14.30859 0.19922,26.70703 0.26953,36.09375c3.01953,1.44922 7.9375,2.21094 11.97656,3.49219c0.06641,-8.78907 0.15625,-20.875 0.26563,-35.08594" fill="#000000"/>
  <path id="svg_95" fill-rule="nonzero" d="m248.03184,43.06544c-6.9375,4.16797 -18.24219,9.79297 -27.06641,12.02344c-0.26562,0.77735 -0.97265,1.66016 -2.22265,2.4961c11.60937,-3.07813 26.55469,-10.75782 29.0039,-11.75391c3.01563,-1.70313 2.78907,-2.6875 2.95704,-3.96875c0.33984,-2.68359 0.18359,-3.51563 -2.14454,-2.43359c-3.42187,4.6875 -22.89843,12.27343 -28.32812,13.625c0.54687,0.27343 0.85547,0.74609 0.86328,1.33203c9.35938,-2.87891 18.39063,-6.85938 26.75,-11.63672c0.21094,-0.1211 0.39453,0.1914 0.1875,0.3164" fill="#000000"/>
  <g id="svg_160" fill="#000000">
   <g id="svg_161">
    <g id="svg_162"/>
   </g>
  </g>
  <g id="svg_167" fill="#000000">
   <g id="svg_168">
    <g id="svg_169"/>
   </g>
  </g>
  <g id="svg_186" fill="#000000">
   <g id="svg_187">
    <g id="svg_188"/>
   </g>
  </g>
  <g id="svg_197" fill="#000000">
   <g id="svg_198">
    <g id="svg_199"/>
   </g>
  </g>
  <g id="svg_232" fill="#000000">
   <g id="svg_233">
    <g id="svg_234"/>
   </g>
  </g>
  <g id="svg_243" fill="#000000">
   <g id="svg_244">
    <g id="svg_245"/>
   </g>
  </g>
  <g id="svg_278" fill="#000000">
   <g id="svg_279">
    <g id="svg_280"/>
   </g>
  </g>
 </g>
</svg>